# xmcd
#
# Track frame offsets: 
#        150
#        15355
#        24377
#        29977
#        38805
#        47501
#        52455
#        54647
#        61230
#        63445
#        70322
#        113469
#        126774
#        131245
#        135664
#        139760
#        144011
#        148343
#        152938
#        157374
#        160932
#        164612
#        171387
#        191876
#        204244
#        210653
#        225598
#        231804
#        235578
#        238862
#        241971
#        245344
#        249179
#        252999
#        256759
#        259877
#        263016
#        266229
#        269435
#        273271
#        283714
#        289415
#        291757
#        294002
#
# Disc length: 3937 seconds
#
# Revision: 7
# Processed by: cddbd v1.5.2PL0 Copyright (c) Steve Scherf et al.
# Submitted via: ExactAudioCopy v1.0b3
#
DISCID=aa0f5f2c
DTITLE=Schenck, Georg Friedrich - piano - Beethoven Edition cd 60 - Mi
DTITLE=scellaneous Works III  - Piano Variations V
DYEAR=2006
DGENRE=Piano
TTITLE0=Presto in C minor WoO 52 
TTITLE1=Allegretto in C major Hess 69 
TTITLE2=Bagatelle Lustig-Traurig WoO 54
TTITLE3=Rondo in C major WoO 48
TTITLE4=Rondo in C major WoO 49
TTITLE5=Two movements of a Sonatina in F major WoO 50 - 1-rst movement
TTITLE6=Two movements of a Sonatina in F major WoO 50 - 2-nd movement
TTITLE7=Allemande WoO 81
TTITLE8=Anglaise in D major Hess 61
TTITLE9=Prelude in F minor WoO 55
TTITLE10=Fantasia in G minor Op.77
TTITLE11=Allegretto in B minor  WoO 61
TTITLE12=9 Variations on a March of Dressler, WoO 63 - Thema, maestoso
TTITLE13=9 Variations on a March of Dressler, WoO 63 - Var 1
TTITLE14=9 Variations on a March of Dressler, WoO 63 - Var 2
TTITLE15=9 Variations on a March of Dressler, WoO 63 - Var 3
TTITLE16=9 Variations on a March of Dressler, WoO 63 - Var 4
TTITLE17=9 Variations on a March of Dressler, WoO 63 - Var 5
TTITLE18=9 Variations on a March of Dressler, WoO 63 - Var 6
TTITLE19=9 Variations on a March of Dressler, WoO 63 - Var 7
TTITLE20=9 Variations on a March of Dressler, WoO 63 - Var 8
TTITLE21=9 Variations on a March of Dressler, WoO 63 - Var 9
TTITLE22=Prelude Op.39 No.1
TTITLE23=Prelude Op.39 No.2
TTITLE24=Fugue in C major Hess 64
TTITLE25=Minuet in E flat major WoO 82
TTITLE26=Allegretto in C major Wo56
TTITLE27=12 Variations in C major on a Menuet ''A la Vigano'' by Haibe
TTITLE27=l,  WoO 68 - Thema, allegretto
TTITLE28=12 Variations in C major on a Menuet ''A la Vigano'' by Haibe
TTITLE28=l, WoO 68 - Var.01
TTITLE29=12 Variations in C major on a Menuet ''A la Vigano'' by Haibe
TTITLE29=l, WoO 68 - Var.02
TTITLE30=12 Variations in C major on a Menuet ''A la Vigano'' by Haibe
TTITLE30=l, WoO 68 - Var.03
TTITLE31=12 Variations in C major on a Menuet ''A la Vigano'' by Haibe
TTITLE31=l, WoO 68 - Var.04
TTITLE32=12 Variations in C major on a Menuet ''A la Vigano'' by Haibe
TTITLE32=l, WoO 68 - Var.05
TTITLE33=12 Variations in C major on a Menuet ''A la Vigano'' by Haibe
TTITLE33=l, WoO 68 - Var.06
TTITLE34=12 Variations in C major on a Menuet ''A la Vigano'' by Haibe
TTITLE34=l, WoO 68 - Var.07
TTITLE35=12 Variations in C major on a Menuet ''A la Vigano'' by Haibe
TTITLE35=l, WoO 68 - Var.08
TTITLE36=12 Variations in C major on a Menuet ''A la Vigano'' by Haibe
TTITLE36=l, WoO 68 - Var.09
TTITLE37=12 Variations in C major on a Menuet ''A la Vigano'' by Haibe
TTITLE37=l, WoO 68 - Var.10
TTITLE38=12 Variations in C major on a Menuet ''A la Vigano'' by Haibe
TTITLE38=l, WoO 68 - Var.11
TTITLE39=12 Variations in C major on a Menuet ''A la Vigano'' by Haibe
TTITLE39=l, WoO 68 - Var.12
TTITLE40=Waltz in E flat major, WoO 84
TTITLE41=Allegretto quasi andante, Wo O61a
TTITLE42=Waltz in D major, WoO 85 
TTITLE43=Ecossaise in E flat major, WoO 86
EXTD=YEAR: 2006
EXTT0=
EXTT1=
EXTT2=
EXTT3=
EXTT4=
EXTT5=
EXTT6=
EXTT7=
EXTT8=
EXTT9=
EXTT10=
EXTT11=
EXTT12=
EXTT13=
EXTT14=
EXTT15=
EXTT16=
EXTT17=
EXTT18=
EXTT19=
EXTT20=
EXTT21=
EXTT22=
EXTT23=
EXTT24=
EXTT25=
EXTT26=
EXTT27=
EXTT28=
EXTT29=
EXTT30=
EXTT31=
EXTT32=
EXTT33=
EXTT34=
EXTT35=
EXTT36=
EXTT37=
EXTT38=
EXTT39=
EXTT40=
EXTT41=
EXTT42=
EXTT43=
PLAYORDER=
